<?xml version="1.0" encoding="UTF-8" standalone="no"?>
<!DOCTYPE svg PUBLIC "-//W3C//DTD SVG 1.1//EN"
 "http://www.w3.org/Graphics/SVG/1.1/DTD/svg11.dtd">
<!-- Generated by graphviz version 12.2.1 (20241206.2353)
 -->
<!-- Title: packages_test Pages: 1 -->
<svg width="315pt" height="188pt"
 viewBox="0.00 0.00 315.12 188.00" xmlns="http://www.w3.org/2000/svg" xmlns:xlink="http://www.w3.org/1999/xlink">
<g id="graph0" class="graph" transform="scale(1 1) rotate(0) translate(4 184)">
<title>packages_test</title>
<polygon fill="white" stroke="none" points="-4,4 -4,-184 311.12,-184 311.12,4 -4,4"/>
<!-- environment -->
<g id="node1" class="node">
<title>environment</title>
<polygon fill="none" stroke="black" points="85,-36 0,-36 0,0 85,0 85,-36"/>
<text text-anchor="middle" x="42.5" y="-12.95" font-family="Times,serif" font-size="14.00">environment</text>
</g>
<!-- environment.base_env -->
<g id="node2" class="node">
<title>environment.base_env</title>
<polygon fill="none" stroke="black" points="243,-180 104,-180 104,-144 243,-144 243,-180"/>
<text text-anchor="middle" x="173.5" y="-156.95" font-family="Times,serif" font-size="14.00">environment.base_env</text>
</g>
<!-- environment.env_wrapper -->
<g id="node3" class="node">
<title>environment.env_wrapper</title>
<polygon fill="none" stroke="black" points="307.12,-108 147.88,-108 147.88,-72 307.12,-72 307.12,-108"/>
<text text-anchor="middle" x="227.5" y="-84.95" font-family="Times,serif" font-size="14.00">environment.env_wrapper</text>
</g>
<!-- environment.env_wrapper&#45;&gt;environment.base_env -->
<g id="edge1" class="edge">
<title>environment.env_wrapper&#45;&gt;environment.base_env</title>
<path fill="none" stroke="black" d="M214.15,-108.3C207.94,-116.36 200.42,-126.11 193.54,-135.02"/>
<polygon fill="black" stroke="black" points="187.44,-142.93 189.98,-132.26 189.75,-139.94 193.55,-135.01 193.55,-135.01 193.55,-135.01 189.75,-139.94 197.11,-137.76 187.44,-142.93"/>
</g>
<!-- environment.simulator -->
<g id="node4" class="node">
<title>environment.simulator</title>
<polygon fill="none" stroke="black" points="243.75,-36 103.25,-36 103.25,0 243.75,0 243.75,-36"/>
<text text-anchor="middle" x="173.5" y="-12.95" font-family="Times,serif" font-size="14.00">environment.simulator</text>
</g>
<!-- environment.simulator&#45;&gt;environment.base_env -->
<g id="edge2" class="edge">
<title>environment.simulator&#45;&gt;environment.base_env</title>
<path fill="none" stroke="black" d="M158.32,-36.3C150.77,-46.06 142.43,-58.9 138.5,-72 133.9,-87.32 133.9,-92.68 138.5,-108 141.33,-117.41 146.43,-126.69 151.88,-134.8"/>
<polygon fill="black" stroke="black" points="157.6,-142.72 148.1,-137.25 155.39,-139.65 151.74,-134.61 151.74,-134.61 151.74,-134.61 155.39,-139.65 155.39,-131.98 157.6,-142.72"/>
</g>
<!-- environment.simulator&#45;&gt;environment.env_wrapper -->
<g id="edge3" class="edge">
<title>environment.simulator&#45;&gt;environment.env_wrapper</title>
<path fill="none" stroke="black" d="M186.85,-36.3C193.06,-44.36 200.58,-54.11 207.46,-63.02"/>
<polygon fill="black" stroke="black" points="213.56,-70.93 203.89,-65.76 211.25,-67.94 207.45,-63.01 207.45,-63.01 207.45,-63.01 211.25,-67.94 211.02,-60.26 213.56,-70.93"/>
</g>
</g>
</svg>
