<?xml version="1.0" encoding="UTF-8" standalone="no"?>
<!DOCTYPE svg PUBLIC "-//W3C//DTD SVG 1.1//EN"
 "http://www.w3.org/Graphics/SVG/1.1/DTD/svg11.dtd">
<!-- Generated by graphviz version 12.2.1 (20241206.2353)
 -->
<!-- Title: packages_planner Pages: 1 -->
<svg width="353pt" height="116pt"
 viewBox="0.00 0.00 352.75 116.00" xmlns="http://www.w3.org/2000/svg" xmlns:xlink="http://www.w3.org/1999/xlink">
<g id="graph0" class="graph" transform="scale(1 1) rotate(0) translate(4 112)">
<title>packages_planner</title>
<polygon fill="white" stroke="none" points="-4,4 -4,-112 348.75,-112 348.75,4 -4,4"/>
<!-- planner -->
<g id="node1" class="node">
<title>planner</title>
<polygon fill="none" stroke="black" points="56.5,-36 0,-36 0,0 56.5,0 56.5,-36"/>
<text text-anchor="middle" x="28.25" y="-12.95" font-family="Times,serif" font-size="14.00">planner</text>
</g>
<!-- planner.base_planner -->
<g id="node2" class="node">
<title>planner.base_planner</title>
<polygon fill="none" stroke="black" points="274.62,-108 143.88,-108 143.88,-72 274.62,-72 274.62,-108"/>
<text text-anchor="middle" x="209.25" y="-84.95" font-family="Times,serif" font-size="14.00">planner.base_planner</text>
</g>
<!-- planner.llm_planner -->
<g id="node3" class="node">
<title>planner.llm_planner</title>
<polygon fill="none" stroke="black" points="200,-36 74.5,-36 74.5,0 200,0 200,-36"/>
<text text-anchor="middle" x="137.25" y="-12.95" font-family="Times,serif" font-size="14.00">planner.llm_planner</text>
</g>
<!-- planner.llm_planner&#45;&gt;planner.base_planner -->
<g id="edge1" class="edge">
<title>planner.llm_planner&#45;&gt;planner.base_planner</title>
<path fill="none" stroke="black" d="M155.05,-36.3C163.62,-44.63 174.05,-54.78 183.47,-63.93"/>
<polygon fill="black" stroke="black" points="190.53,-70.8 180.23,-67.06 187.82,-68.17 183.36,-63.83 183.36,-63.83 183.36,-63.83 187.82,-68.17 186.5,-60.61 190.53,-70.8"/>
</g>
<!-- planner.pog_planner -->
<g id="node4" class="node">
<title>planner.pog_planner</title>
<polygon fill="none" stroke="black" points="344.75,-36 217.75,-36 217.75,0 344.75,0 344.75,-36"/>
<text text-anchor="middle" x="281.25" y="-12.95" font-family="Times,serif" font-size="14.00">planner.pog_planner</text>
</g>
<!-- planner.pog_planner&#45;&gt;planner.base_planner -->
<g id="edge2" class="edge">
<title>planner.pog_planner&#45;&gt;planner.base_planner</title>
<path fill="none" stroke="black" d="M263.45,-36.3C254.88,-44.63 244.45,-54.78 235.03,-63.93"/>
<polygon fill="black" stroke="black" points="227.97,-70.8 232,-60.61 230.68,-68.17 235.14,-63.83 235.14,-63.83 235.14,-63.83 230.68,-68.17 238.27,-67.06 227.97,-70.8"/>
</g>
</g>
</svg>
